Coordinates
version=1
nRows=9
nColumns=24
inDegrees=yes

Units are S.I. units (second, meters, Newtons, ...)
Angles are in degrees.

endheader
time	pelvis_tilt	pelvis_list	pelvis_rotation	pelvis_tx	pelvis_ty	pelvis_tz	hip_flexion_r	hip_adduction_r	hip_rotation_r	knee_angle_r	ankle_angle_r	subtalar_angle_r	mtp_angle_r	hip_flexion_l	hip_adduction_l	hip_rotation_l	knee_angle_l	ankle_angle_l	subtalar_angle_l	mtp_angle_l	lumbar_extension	lumbar_bending	lumbar_rotation
      6.60000000	     -8.19018598	     -1.66121189	     12.16932702	     -1.21303310	     -0.02688285	     -0.29246465	     32.70239476	     -4.27356175	     -9.01376237	    -11.44212967	     -2.39527731	      6.34620263	     14.14416901	     -7.25984213	     -0.38311188	     18.31097371	    -14.81555978	      6.82300681	      1.19298794	     14.24597705	      4.57337153	     -1.07771596	    -11.40701188
      6.60500000	     -8.29939089	     -1.82400012	     12.16880519	     -1.20618016	     -0.02765937	     -0.29175137	     32.75209699	     -4.08634091	     -9.26539721	    -11.92009932	     -3.19715274	      6.07616597	     15.05590536	     -7.22767802	     -0.65264731	     17.91287432	    -15.33163323	      6.34465890	      1.69199194	     15.28183245	      4.91291623	     -0.90469546	    -11.30589268
      6.61000000	     -8.39457604	     -2.07527328	     12.28356146	     -1.19937206	     -0.02828989	     -0.29119308	     32.78690120	     -3.87917280	     -9.67584297	    -12.42944939	     -3.77874160	      5.92109804	     15.14014533	     -7.15932347	     -1.00592011	     17.86219301	    -15.94222911	      6.02181743	      2.15999808	     15.55140579	      5.25491845	     -0.65703927	    -11.37022954
      6.61500000	     -8.51635193	     -2.27893680	     12.21632031	     -1.19266210	     -0.02894231	     -0.29027000	     32.90852303	     -3.59964790	     -9.74896312	    -12.92834337	     -4.74193398	      5.46781271	     16.01297337	     -7.02146413	     -1.32452861	     17.25455897	    -16.56370064	      5.47610662	      2.88655716	     16.85377879	      5.58708788	     -0.45231156	    -11.20429351
      6.62000000	     -8.62119461	     -2.59405809	     12.30818476	     -1.18598135	     -0.02939929	     -0.28959275	     32.99698901	     -3.30227716	    -10.01349221	    -13.44080819	     -5.42134027	      5.20502588	     16.18793277	     -6.82053138	     -1.75601759	     16.94966534	    -17.30497610	      5.05928340	      3.64067595	     17.43108868	      5.93095498	     -0.14142988	    -11.22358442
      6.62500000	     -8.74083487	     -2.94803399	     12.23626725	     -1.17927958	     -0.02982310	     -0.28871800	     33.15204217	     -2.85958575	     -9.98110069	    -13.98717477	     -6.16554829	      4.84000117	     16.35671655	     -6.59174054	     -2.22183070	     16.39248011	    -18.05334379	      4.55057027	      4.41919074	     18.24311773	      6.29795652	      0.23584905	    -11.08055652
      6.63000000	     -8.84667072	     -3.32908502	     12.13745636	     -1.17260741	     -0.03012624	     -0.28781572	     33.31200694	     -2.35558782	     -9.80933150	    -14.56191499	     -6.87501874	      4.44150806	     16.44901698	     -6.34418781	     -2.72086809	     15.79282039	    -18.83076174	      3.92436595	      5.19190174	     19.19017194	      6.65026327	      0.65160234	    -10.92592829
      6.63500000	     -8.94314222	     -3.73567941	     12.00346092	     -1.16594498	     -0.03032516	     -0.28687817	     33.48016252	     -1.78615122	     -9.49706610	    -15.17290654	     -7.50698772	      4.03143485	     16.41376534	     -6.07282680	     -3.25266519	     15.13075636	    -19.64680407	      3.20946538	      5.99984569	     20.19783305	      6.99456504	      1.10455519	    -10.74244115
      6.64000000	     -9.02823075	     -4.15234525	     11.83949506	     -1.15928464	     -0.03042687	     -0.28590439	     33.64691916	     -1.16449745	     -9.04400405	    -15.81525957	     -8.05285679	      3.57941212	     16.22514457	     -5.77803298	     -3.80517851	     14.39273624	    -20.50800689	      2.39416299	      6.85616570	     21.28472589	      7.32471468	      1.57641779	    -10.54159948
